<?xml version="1.0" encoding="UTF-8" standalone="no"?>
<!-- Generator: Adobe Illustrator 15.0.2, SVG Export Plug-In . SVG Version: 6.00 Build 0)  -->

<svg
   xmlns:dc="http://purl.org/dc/elements/1.1/"
   xmlns:cc="http://creativecommons.org/ns#"
   xmlns:rdf="http://www.w3.org/1999/02/22-rdf-syntax-ns#"
   xmlns:svg="http://www.w3.org/2000/svg"
   xmlns="http://www.w3.org/2000/svg"
   xmlns:xlink="http://www.w3.org/1999/xlink"
   xmlns:sodipodi="http://sodipodi.sourceforge.net/DTD/sodipodi-0.dtd"
   xmlns:inkscape="http://www.inkscape.org/namespaces/inkscape"
   version="1.1"
   id="Layer_1"
   x="0px"
   y="0px"
   width="1104px"
   height="908px"
   viewBox="0 0 1104 908"
   enable-background="new 0 0 1104 908"
   xml:space="preserve"
   inkscape:version="0.48.1 r9760"
   sodipodi:docname="Pips_and_Numbers_1.0.svg"><title
   id="title3156">Pips_Tempate</title><metadata
   id="metadata179"><rdf:RDF><cc:Work
       rdf:about=""><dc:format>image/svg+xml</dc:format><dc:type
         rdf:resource="http://purl.org/dc/dcmitype/StillImage" /><dc:title>Pips_Tempate</dc:title><dc:date>4/24/2011</dc:date><dc:creator><cc:Agent><dc:title>Chris Aguilar</dc:title></cc:Agent></dc:creator><dc:rights><cc:Agent><dc:title>LGPL 3.0</dc:title></cc:Agent></dc:rights><dc:publisher><cc:Agent><dc:title>Chris Aguilar</dc:title></cc:Agent></dc:publisher></cc:Work></rdf:RDF></metadata><defs
   id="defs177" /><sodipodi:namedview
   pagecolor="#ffffff"
   bordercolor="#666666"
   borderopacity="1"
   objecttolerance="10"
   gridtolerance="10"
   guidetolerance="10"
   inkscape:pageopacity="0"
   inkscape:pageshadow="2"
   inkscape:window-width="1403"
   inkscape:window-height="959"
   id="namedview175"
   showgrid="false"
   inkscape:zoom="0.63876652"
   inkscape:cx="336.03273"
   inkscape:cy="568.17805"
   inkscape:window-x="0"
   inkscape:window-y="0"
   inkscape:window-maximized="0"
   inkscape:current-layer="Layer_1" />
<path
   fill="#FFFFFF"
   d="M213.414,281.788h161.574c4.711,0,8.504,3.793,8.504,8.504v232.442c0,4.711-3.793,8.504-8.504,8.504H213.414  c-4.711,0-8.504-3.793-8.504-8.504V290.292C204.91,285.581,208.703,281.788,213.414,281.788L213.414,281.788z M213.414,281.788"
   id="path3" />
<path
   fill="none"
   stroke="#000000"
   stroke-width="0.7974"
   d="M213.414,281.788h161.574c4.711,0,8.504,3.793,8.504,8.504v232.442  c0,4.711-3.793,8.504-8.504,8.504H213.414c-4.711,0-8.504-3.793-8.504-8.504V290.292  C204.91,285.581,208.703,281.788,213.414,281.788L213.414,281.788z M213.414,281.788"
   id="path5" />
<path
   fill="#FFFFFF"
   d="M479.012,281.788h161.574c4.711,0,8.504,3.793,8.504,8.504v232.442c0,4.711-3.793,8.504-8.504,8.504H479.012  c-4.711,0-8.504-3.793-8.504-8.504V290.292C470.508,285.581,474.301,281.788,479.012,281.788L479.012,281.788z M479.012,281.788"
   id="path7" />
<path
   fill="none"
   stroke="#000000"
   stroke-width="0.7974"
   d="M479.012,281.788h161.574c4.711,0,8.504,3.793,8.504,8.504v232.442  c0,4.711-3.793,8.504-8.504,8.504H479.012c-4.711,0-8.504-3.793-8.504-8.504V290.292  C470.508,285.581,474.301,281.788,479.012,281.788L479.012,281.788z M479.012,281.788"
   id="path9" />
<path
   fill="#FFFFFF"
   d="M744.613,281.788h161.574c4.711,0,8.504,3.793,8.504,8.504v232.442c0,4.711-3.793,8.504-8.504,8.504H744.613  c-4.711,0-8.504-3.793-8.504-8.504V290.292C736.109,285.581,739.902,281.788,744.613,281.788L744.613,281.788z M744.613,281.788"
   id="path11" />
<path
   fill="none"
   stroke="#000000"
   stroke-width="0.7974"
   d="M744.613,281.788h161.574c4.711,0,8.504,3.793,8.504,8.504v232.442  c0,4.711-3.793,8.504-8.504,8.504H744.613c-4.711,0-8.504-3.793-8.504-8.504V290.292  C736.109,285.581,739.902,281.788,744.613,281.788L744.613,281.788z M744.613,281.788"
   id="path13" />
<path
   d="M123.941,674.456l0.125-1.554c0.395-4.802,1.446-6.422,7.407-11.435c2.894-2.43,3.843-3.629,3.976-5.02  c0.379-3.281-2.578-4.305-4.504-4.32c-2.496-0.022-5.32,1.469-3.972,4.935l-2.801,0.823c-0.563-3.233,0.016-6.266,2.637-7.612  c3.5-1.755,7.988-1.067,10.254,1.698c1.523,1.855,1.871,4.422,1.054,6.431c-2.387,5.132-10.484,7.39-11.152,13.328h8.949v-3.306  h2.637v6.086L123.941,674.456z M123.941,674.456"
   id="path15" />
<path
   d="M194.297,668.984l1.976-1.427c1.715,2.742,3.633,4.548,6.567,4.238c4.402-0.297,6.226-4.828,5.305-8.242  c-0.891-3.063-4.536-4.555-7.434-2.922c-0.684,0.387-1.344,0.703-1.473,0.703c-0.304,0-0.992-1.344-0.898-1.754  c1.945-2.789,6.668-7.675,6.668-7.675h-7.379v3.272h-2.832v-5.871h14.422v1.992c0,0-3.864,3.935-5.141,6.09  c3.145,0.113,5.68,2.07,6.59,5.164c0.531,1.629,0.293,5.355-0.402,6.961c-1.161,2.677-4.332,4.849-7.231,4.974  C198.168,674.808,195.586,671.46,194.297,668.984L194.297,668.984z M194.297,668.984"
   id="path17" />
<path
   d="M274.188,674.507v-2.226h2.046v-3.672H266v-2.591l11.074-16.711l1.809,0.009v16.702h3.133v2.591h-3.133l-0.059,3.672h1.715  v2.229L274.188,674.507z M276.234,655.425l-7.031,10.594h7.031V655.425z M276.234,655.425"
   id="path19" />
<path
   d="M337.297,667.984l2.516-0.024c0.48,1.521,1.542,3.067,2.984,3.496c4.074,0.957,6.695-1.32,7.558-3.945  c1.047-3.184-0.023-7.655-2.828-9.242c-2.324-1.316-5.777-0.206-7.363,2.609l-1.762-1.078l0.946-10.492h11.511v2.48h-9.328  l-0.148,4.371c2.008-1.41,5.094-1.395,7.101-0.406c3.801,1.813,5.567,5.935,4.829,10.793c-1.024,4.832-3.282,7.57-8.375,7.961  C339.273,674.558,337.273,670.663,337.297,667.984L337.297,667.984z M337.297,667.984"
   id="path21" />
<path
   d="M409.23,666.757c-0.316-2.121-0.308-7.604-0.05-9.226c0.797-4.969,2.73-7.243,5.968-7.985  c3.145-0.723,7.563,0.082,8.532,4.235l-2.629,0.05c-1.422-2.808-5.02-2.058-7.047-0.836c-1.617,0.973-2.348,5.036-2.035,5.286  c0,0,3.058-2.224,5.469-2.06c5.152,0.527,7.277,4.914,7.097,9.056c-0.164,4.983-1.773,8.968-7.234,9.233  C412.109,674.313,409.73,671.534,409.23,666.757L409.23,666.757z M422.035,665.441c0.028-3.457-1.57-6.048-4.597-6.332  c-3.024-0.286-6.075,2.612-5.864,6.136c0.211,3.539,1.606,6.516,5.274,6.5C420.793,671.73,422.016,667.902,422.035,665.441  L422.035,665.441z M422.035,665.441"
   id="path23" />
<path
   d="M484.203,674.507c1.688-8.762,3.485-15.34,8.203-22.479h-9.59v3.073h-2.546v-5.793h14.027l1.73,2.72  c-5.011,5.371-9.597,22.733-8.785,22.479H484.203z M484.203,674.507"
   id="path25" />
<path
   d="M551.191,667.128c0.122-3.383,1.368-4.652,3.821-6.422c-1.957-1.386-2.782-3.429-2.614-5.168  c0.403-4.211,3.715-6.316,7.329-6.226c3.617,0.094,6.73,2.909,6.973,5.969c0.211,2.66-0.594,3.944-2.516,5.343  c2.281,1.891,3.738,3.133,3.684,6.465s-2.941,7.297-7.973,7.418C554.863,674.628,551.066,670.511,551.191,667.128L551.191,667.128z   M565.238,667.14c0.215-3.063-2.543-5.129-5.656-5.159c-3.031-0.032-5.742,2.508-5.742,5.258c0,2.953,3.527,4.558,5.805,4.565  C562.414,671.816,565.051,669.777,565.238,667.14L565.238,667.14z M564.242,656.183c0.059-2.577-2.363-4.426-4.863-4.352  c-2.223,0.067-4.574,1.731-4.578,3.887c0,2.699,2.676,4.047,4.961,4.099C561.836,659.863,564.195,658.132,564.242,656.183  L564.242,656.183z M564.242,656.183"
   id="path27" />
<path
   d="M623.738,669.652l2.348-0.731c0.887,2.324,2.676,3.012,4.57,2.863c3.398-0.266,4.527-3.996,4.781-7.293  c-1.324,1.379-3.313,2.079-5.008,2.008c-5.418-0.285-6.805-4.543-6.855-9c-0.148-3.758,1.434-6.48,4.148-7.73  c1.438-0.633,4.73-0.633,6.176,0.117c3.32,1.72,4.551,4.691,4.328,11.785c0,5.836-1.262,12.633-7.633,12.781  C626.914,674.952,624.117,672.14,623.738,669.652L623.738,669.652z M632.961,663.257c1.105-0.687,1.727-1.332,2.223-2.297  c0.406-0.793,0.547-1.207,0.43-2.847c-0.301-4.231-2.559-6.633-5.836-6.157c-1.828,0.27-2.828,1.274-3.402,3.141  c-1.059,3.453,0.285,7.492,2.801,8.422C630.309,663.941,632.059,663.82,632.961,663.257L632.961,663.257z M632.961,663.257"
   id="path29" />
<path
   d="M694.496,674.511v-25.203h2.488v25.203H694.496z M694.496,674.511"
   id="path31" />
<path
   d="M704.359,649.308c-2.395,0-4.32,2.148-4.32,4.816v15.571c0,2.668,1.926,4.815,4.32,4.815h1.398  c2.395,0,4.324-2.147,4.324-4.815v-15.571c0-2.668-1.93-4.816-4.324-4.816H704.359z M705.082,651.691  c1.414,0,2.551,1.065,2.551,2.397v15.777c0,1.332-1.137,2.407-2.551,2.407s-2.555-1.075-2.555-2.407v-15.777  C702.527,652.757,703.668,651.691,705.082,651.691L705.082,651.691z M705.082,651.691"
   id="path33" />
<path
   d="M773.586,649.308v2.638h2.609c0,0,0.063,2.543,0.086,7.937c0.02,5.238,0.129,7.836-0.211,9.328  c-0.914,3.438-5.988,3.457-6.996,0.985c-0.586-1.438-0.43-2.556-0.457-4.004h-2.805c0,0,0.016,0.729,0.02,1.621  c0.016,3.866,1.32,5.715,4.371,6.444c3.137,0.832,6.805-0.437,8.109-3.069c0.777-1.5,0.688-1.603,0.707-10.673  c0.012-6.051,0.105-8.569,0.105-8.569h2.402v-2.638H773.586z M773.586,649.308"
   id="path35" />
<path
   d="M839.395,666.171h-2.145V663.3h2.145c0,0,0.016-1.547,0.078-4.276c0.133-5.817,0.281-6.72,1.996-8.321  c3.387-3.164,9.059-0.586,8.992,4.172c-0.098,6.715-0.027,13.117-0.227,14.024c-0.355,1.597-0.391,1.687-0.246,1.979  c0.297,0.586,2.859,0.84,2.859,0.676v2.828c-1.957,0.149-2.77-0.031-4.336-1.129c-0.977,0.926-3.953,1.856-6.32,0.762  C840.391,673.183,839.027,671.034,839.395,666.171L839.395,666.171z M846.645,671.183c-1.063-1.508-2.852-3.566-4.535-4.297  c-0.105,1.734,0.047,3.188,0.668,3.97C843.766,672.101,845.363,672.386,846.645,671.183L846.645,671.183z M847.527,654.597  c-0.789-2.194-2.816-2.938-4.297-1.565c-0.926,0.854-1.074,1.753-1.094,6.636c-0.012,3.012-0.012,4.278-0.012,4.278  c2.883,0.918,5.578,4.218,5.555,4.175l0.07-9.109C847.805,657.534,847.73,656.054,847.527,654.597L847.527,654.597z   M847.527,654.597"
   id="path37" />
<path
   d="M917.051,671.734h2.582l-3.793-9.306l-2.898,3.931l0.02,5.375h2.035v2.772h-7.172v-2.772h2.363v-20.013l-2.363,0.009v-2.423  h7.277v2.505h-2.008l-0.043,9.754l6.352-9.836h-2.242v-2.423h7.742v2.423h-2.043l-5.23,8.038l5.121,11.97h2.273l0.012,2.772h-7.961  L917.051,671.734z M917.051,671.734"
   id="path39" />
<path
   d="M979.961,674.511v-2.155h2.094l4.461-23.048h2.539l4.914,23.048h1.691v2.155h-5.762v-2.155h1.555l-0.621-3.532h-5.813  l-0.449,3.532h1.555v2.155H979.961z M990.336,666.308l-2.527-12.336l-2.367,12.336H990.336z M990.336,666.308"
   id="path41" />
<path
   d="M138.551,696.019l-0.125,1.555c-0.395,4.801-1.446,6.422-7.406,11.43c-2.895,2.435-3.844,3.633-3.977,5.024  c-0.379,3.276,2.578,4.304,4.504,4.319c2.496,0.023,5.32-1.469,3.973-4.938l2.8-0.82c0.563,3.234-0.015,6.267-2.636,7.613  c-3.5,1.754-7.989,1.066-10.254-1.699c-1.524-1.854-1.867-4.422-1.055-6.43c2.387-5.132,10.484-7.391,11.152-13.328h-8.949v3.305  h-2.637v-6.086L138.551,696.019z M138.551,696.019"
   id="path43" />
<path
   d="M210.957,701.491l-1.977,1.426c-1.718-2.742-3.632-4.547-6.566-4.238c-4.402,0.297-6.226,4.828-5.305,8.242  c0.891,3.063,4.536,4.555,7.434,2.922c0.68-0.387,1.344-0.703,1.473-0.703c0.3,0,0.992,1.345,0.898,1.754  c-1.945,2.785-6.668,7.677-6.668,7.677h7.379v-3.274h2.832v5.871h-14.422v-1.992c0,0,3.86-3.934,5.141-6.09  c-3.149-0.113-5.684-2.07-6.59-5.168c-0.531-1.625-0.293-5.351,0.402-6.957c1.157-2.676,4.332-4.847,7.231-4.972  C207.086,695.667,209.668,699.015,210.957,701.491L210.957,701.491z M210.957,701.491"
   id="path45" />
<path
   d="M273.828,695.968v2.228h-2.051v3.671h10.239v2.59l-11.078,16.711l-1.809-0.008v-16.703H266v-2.593h3.129l0.062-3.672h-1.718  v-2.228L273.828,695.968z M271.777,715.05l7.036-10.594h-7.036V715.05z M271.777,715.05"
   id="path47" />
<path
   d="M353.477,702.491l-2.516,0.023c-0.481-1.52-1.543-3.069-2.984-3.496c-4.071-0.956-6.696,1.32-7.559,3.945  c-1.047,3.185,0.023,7.652,2.828,9.242c2.324,1.317,5.777,0.207,7.363-2.609l1.766,1.078l-0.949,10.492h-11.512v-2.479h9.328  l0.149-4.371c-2.004,1.409-5.094,1.394-7.102,0.405c-3.801-1.813-5.566-5.934-4.828-10.793c1.023-4.832,3.281-7.569,8.379-7.965  C351.5,695.917,353.5,699.808,353.477,702.491L353.477,702.491z M353.477,702.491"
   id="path49" />
<path
   d="M424.305,703.718c0.316,2.121,0.308,7.605,0.05,9.228c-0.796,4.968-2.73,7.237-5.968,7.983  c-3.145,0.724-7.563-0.082-8.532-4.233l2.629-0.052c1.422,2.809,5.02,2.059,7.047,0.837c1.617-0.978,2.348-5.039,2.035-5.289  c0,0-3.058,2.226-5.468,2.062c-5.153-0.527-7.278-4.914-7.098-9.058c0.164-4.981,1.773-8.965,7.234-9.231  C421.426,696.159,423.805,698.941,424.305,703.718L424.305,703.718z M411.5,705.034c-0.027,3.457,1.57,6.043,4.598,6.332  c3.023,0.286,6.074-2.613,5.863-6.141c-0.211-3.534-1.606-6.516-5.273-6.495C412.742,698.745,411.52,702.573,411.5,705.034  L411.5,705.034z M411.5,705.034"
   id="path51" />
<path
   d="M492.09,695.968c-1.684,8.763-3.481,15.336-8.199,22.478h9.586v-3.071h2.55v5.793H482l-1.73-2.722  c5.011-5.368,9.597-22.731,8.785-22.478H492.09z M492.09,695.968"
   id="path53" />
<path
   d="M567.867,703.347c-0.125,3.379-1.371,4.652-3.82,6.422c1.953,1.388,2.777,3.43,2.613,5.169  c-0.402,4.211-3.719,6.315-7.332,6.226c-3.613-0.093-6.73-2.91-6.973-5.968c-0.21-2.664,0.598-3.946,2.52-5.349  c-2.281-1.887-3.742-3.129-3.687-6.461c0.054-3.332,2.941-7.297,7.972-7.418S567.992,699.964,567.867,703.347L567.867,703.347z   M553.82,703.335c-0.215,3.063,2.543,5.129,5.653,5.16c3.031,0.032,5.742-2.507,5.746-5.257c0-2.954-3.527-4.56-5.809-4.567  C556.641,698.659,554.004,700.695,553.82,703.335L553.82,703.335z M554.816,714.288c-0.062,2.582,2.364,4.43,4.86,4.355  c2.223-0.066,4.578-1.73,4.578-3.887c0-2.699-2.676-4.047-4.961-4.098C557.223,710.613,554.859,712.343,554.816,714.288  L554.816,714.288z M554.816,714.288"
   id="path55" />
<path
   d="M638.078,700.823l-2.348,0.73c-0.887-2.323-2.676-3.012-4.57-2.862c-3.398,0.265-4.527,3.991-4.781,7.293  c1.324-1.379,3.316-2.078,5.012-2.009c5.414,0.285,6.801,4.539,6.852,9c0.152,3.759-1.434,6.48-4.148,7.727  c-1.438,0.633-4.727,0.637-6.176-0.113c-3.32-1.719-4.551-4.69-4.328-11.785c0-5.836,1.262-12.637,7.633-12.78  C634.906,695.523,637.703,698.335,638.078,700.823L638.078,700.823z M628.855,707.218c-1.105,0.688-1.727,1.328-2.223,2.297  c-0.406,0.793-0.543,1.203-0.43,2.849c0.301,4.229,2.559,6.628,5.84,6.151c1.828-0.266,2.824-1.27,3.398-3.141  c1.059-3.449-0.285-7.488-2.801-8.422C631.508,706.534,629.762,706.656,628.855,707.218L628.855,707.218z M628.855,707.218"
   id="path57" />
<path
   d="M710.082,695.964v25.203h-2.488v-25.203H710.082z M710.082,695.964"
   id="path59" />
<path
   d="M700.219,721.167c2.395,0,4.32-2.148,4.32-4.816v-15.569c0-2.668-1.926-4.817-4.32-4.817h-1.398  c-2.395,0-4.324,2.149-4.324,4.817v15.569c0,2.668,1.93,4.816,4.324,4.816H700.219z M699.496,718.784  c-1.414,0-2.551-1.07-2.551-2.398v-15.78c0-1.332,1.137-2.403,2.551-2.403s2.555,1.071,2.555,2.403v15.78  C702.051,717.714,700.91,718.784,699.496,718.784L699.496,718.784z M699.496,718.784"
   id="path61" />
<path
   d="M773.75,721.167v-2.636h-2.605c0,0-0.063-2.543-0.086-7.938c-0.023-5.237-0.129-7.836,0.207-9.328  c0.918-3.441,5.988-3.457,7-0.983c0.586,1.437,0.426,2.554,0.457,4h2.805c0,0-0.016-0.728-0.02-1.618  c-0.016-3.867-1.32-5.715-4.375-6.445c-3.137-0.832-6.801,0.438-8.105,3.07c-0.781,1.5-0.691,1.598-0.707,10.668  c-0.012,6.055-0.109,8.575-0.109,8.575h-2.398v2.636H773.75z M773.75,721.167"
   id="path63" />
<path
   d="M850.703,704.304h2.145v2.871h-2.145c0,0-0.016,1.543-0.078,4.273c-0.129,5.82-0.281,6.723-1.992,8.325  c-3.387,3.164-9.063,0.586-8.992-4.173c0.098-6.715,0.023-13.116,0.223-14.023c0.355-1.597,0.391-1.691,0.246-1.98  c-0.293-0.586-2.859-0.84-2.859-0.676v-2.828c1.957-0.151,2.77,0.031,4.336,1.129c0.98-0.926,3.957-1.855,6.32-0.762  C849.707,697.288,851.074,699.441,850.703,704.304L850.703,704.304z M843.453,699.288c1.063,1.512,2.852,3.571,4.539,4.297  c0.102-1.729-0.047-3.183-0.672-3.969C846.332,698.374,844.738,698.085,843.453,699.288L843.453,699.288z M842.57,715.874  c0.789,2.199,2.816,2.942,4.297,1.571c0.926-0.856,1.074-1.754,1.094-6.638c0.012-3.012,0.016-4.276,0.016-4.276  c-2.887-0.918-5.582-4.219-5.555-4.176l-0.074,9.108C842.297,712.941,842.367,714.421,842.57,715.874L842.57,715.874z   M842.57,715.874"
   id="path65" />
<path
   d="M915.809,698.741h-2.582l3.793,9.301l2.898-3.926l-0.016-5.375h-2.039v-2.773h7.172v2.773h-2.363v20.012l2.363-0.008v2.422  h-7.277v-2.504h2.008l0.043-9.754l-6.352,9.836h2.242v2.422h-7.742v-2.422H910l5.23-8.039l-5.121-11.968h-2.273l-0.012-2.774h7.961  L915.809,698.741z M915.809,698.741"
   id="path67" />
<path
   d="M995.66,695.964v2.156h-2.098l-4.457,23.047h-2.539l-4.914-23.047h-1.691v-2.156h5.762v2.156h-1.555l0.617,3.532h5.816  l0.449-3.532h-1.559v-2.156H995.66z M985.285,704.167l2.523,12.336l2.367-12.336H985.285z M985.285,704.167"
   id="path69" />
<path
   fill="#D40000"
   d="M123.941,799.609l0.125-1.556c0.395-4.801,1.446-6.422,7.407-11.434c2.894-2.429,3.843-3.629,3.976-5.02  c0.379-3.28-2.578-4.305-4.504-4.323c-2.496-0.021-5.32,1.472-3.972,4.937l-2.801,0.824c-0.563-3.234,0.016-6.27,2.637-7.613  c3.5-1.758,7.988-1.065,10.254,1.695c1.523,1.86,1.871,4.422,1.054,6.434c-2.387,5.134-10.484,7.392-11.152,13.328h8.949v-3.309  h2.637v6.086L123.941,799.609z M123.941,799.609"
   id="path71" />
<path
   fill="#D40000"
   d="M194.297,794.136l1.976-1.43c1.715,2.742,3.633,4.551,6.567,4.239c4.402-0.293,6.226-4.825,5.305-8.243  c-0.891-3.059-4.536-4.55-7.434-2.918c-0.684,0.387-1.344,0.704-1.473,0.704c-0.304,0-0.992-1.345-0.898-1.754  c1.945-2.789,6.668-7.677,6.668-7.677h-7.379v3.273h-2.832v-5.871h14.422v1.992c0,0-3.864,3.934-5.141,6.09  c3.145,0.114,5.68,2.071,6.59,5.164c0.531,1.629,0.293,5.356-0.402,6.957c-1.161,2.68-4.332,4.852-7.231,4.977  C198.168,799.96,195.586,796.613,194.297,794.136L194.297,794.136z M194.297,794.136"
   id="path73" />
<path
   fill="#D40000"
   d="M274.188,799.659v-2.227h2.046v-3.672H266v-2.59l11.074-16.711l1.809,0.008v16.703h3.133v2.59h-3.133  l-0.059,3.672h1.715v2.23L274.188,799.659z M276.234,780.573l-7.031,10.598h7.031V780.573z M276.234,780.573"
   id="path75" />
<path
   fill="#D40000"
   d="M337.297,793.132l2.516-0.019c0.48,1.519,1.542,3.065,2.984,3.496c4.074,0.957,6.695-1.321,7.558-3.946  c1.047-3.183-0.023-7.656-2.828-9.242c-2.324-1.32-5.777-0.207-7.363,2.61l-1.762-1.083l0.946-10.488h11.511v2.481h-9.328  l-0.148,4.366c2.008-1.405,5.094-1.395,7.101-0.405c3.801,1.812,5.567,5.933,4.829,10.793c-1.024,4.836-3.282,7.569-8.375,7.964  C339.273,799.71,337.273,795.816,337.297,793.132L337.297,793.132z M337.297,793.132"
   id="path77" />
<path
   fill="#D40000"
   d="M409.23,791.909c-0.316-2.125-0.308-7.609-0.05-9.227c0.797-4.969,2.73-7.241,5.968-7.984  c3.145-0.723,7.563,0.083,8.532,4.234l-2.629,0.052c-1.422-2.81-5.02-2.06-7.047-0.841c-1.617,0.977-2.348,5.039-2.035,5.289  c0,0,3.058-2.223,5.469-2.059c5.152,0.528,7.277,4.91,7.097,9.055c-0.164,4.984-1.773,8.966-7.234,9.23  C412.109,799.464,409.73,796.688,409.23,791.909L409.23,791.909z M422.035,790.593c0.028-3.461-1.57-6.047-4.597-6.332  c-3.024-0.285-6.075,2.613-5.864,6.138c0.211,3.539,1.606,6.515,5.274,6.5C420.793,796.878,422.016,793.054,422.035,790.593  L422.035,790.593z M422.035,790.593"
   id="path79" />
<path
   fill="#D40000"
   d="M484.203,799.659c1.688-8.766,3.485-15.339,8.203-22.48h-9.59v3.074h-2.546v-5.793h14.027l1.73,2.719  c-5.011,5.371-9.597,22.73-8.785,22.48H484.203z M484.203,799.659"
   id="path81" />
<path
   fill="#D40000"
   d="M551.191,792.281c0.122-3.383,1.368-4.653,3.821-6.422c-1.957-1.392-2.782-3.431-2.614-5.172  c0.403-4.207,3.715-6.317,7.329-6.224c3.617,0.09,6.73,2.91,6.973,5.969c0.211,2.66-0.594,3.941-2.516,5.345  c2.281,1.886,3.738,3.132,3.684,6.464c-0.055,3.329-2.941,7.293-7.973,7.418C554.863,799.781,551.066,795.663,551.191,792.281  L551.191,792.281z M565.238,792.292c0.215-3.062-2.543-5.129-5.656-5.16c-3.031-0.031-5.742,2.508-5.742,5.258  c0,2.953,3.527,4.559,5.805,4.566C562.414,796.968,565.051,794.929,565.238,792.292L565.238,792.292z M564.242,781.335  c0.059-2.578-2.363-4.429-4.863-4.351c-2.223,0.065-4.574,1.729-4.578,3.886c0,2.7,2.676,4.043,4.961,4.094  C561.836,785.011,564.195,783.284,564.242,781.335L564.242,781.335z M564.242,781.335"
   id="path83" />
<path
   fill="#D40000"
   d="M623.738,794.804l2.348-0.73c0.887,2.325,2.676,3.008,4.57,2.864c3.398-0.267,4.527-3.996,4.781-7.293  c-1.324,1.374-3.313,2.073-5.008,2.008c-5.418-0.286-6.805-4.543-6.855-9c-0.148-3.763,1.434-6.481,4.148-7.731  c1.438-0.633,4.73-0.633,6.176,0.117c3.32,1.719,4.551,4.692,4.328,11.785c0,5.836-1.262,12.633-7.633,12.777  C626.914,800.101,624.117,797.292,623.738,794.804L623.738,794.804z M632.961,788.409c1.105-0.688,1.727-1.332,2.223-2.296  c0.406-0.793,0.547-1.207,0.43-2.849c-0.301-4.233-2.559-6.633-5.836-6.155c-1.828,0.265-2.828,1.272-3.402,3.14  c-1.059,3.453,0.285,7.492,2.801,8.422C630.309,789.093,632.059,788.972,632.961,788.409L632.961,788.409z M632.961,788.409"
   id="path85" />
<path
   fill="#D40000"
   d="M694.496,799.663v-25.207h2.488v25.207H694.496z M694.496,799.663"
   id="path87" />
<path
   fill="#D40000"
   d="M704.359,774.456c-2.395,0-4.32,2.153-4.32,4.821v15.569c0,2.668,1.926,4.816,4.32,4.816h1.398  c2.395,0,4.324-2.148,4.324-4.816v-15.569c0-2.668-1.93-4.821-4.324-4.821H704.359z M705.082,776.839  c1.414,0,2.551,1.07,2.551,2.402v15.777c0,1.332-1.137,2.406-2.551,2.406s-2.555-1.074-2.555-2.406v-15.777  C702.527,777.909,703.668,776.839,705.082,776.839L705.082,776.839z M705.082,776.839"
   id="path89" />
<path
   fill="#D40000"
   d="M773.586,774.46v2.637h2.609c0,0,0.063,2.543,0.086,7.938c0.02,5.239,0.129,7.836-0.211,9.329  c-0.914,3.437-5.988,3.453-6.996,0.983c-0.586-1.44-0.43-2.559-0.457-4.004h-2.805c0,0,0.016,0.73,0.02,1.617  c0.016,3.871,1.32,5.715,4.371,6.449c3.137,0.829,6.805-0.438,8.109-3.07c0.777-1.5,0.688-1.601,0.707-10.672  c0.012-6.054,0.105-8.57,0.105-8.57h2.402v-2.637H773.586z M773.586,774.46"
   id="path91" />
<path
   fill="#D40000"
   d="M839.395,791.323h-2.145v-2.875h2.145c0,0,0.016-1.542,0.078-4.273c0.133-5.815,0.281-6.723,1.996-8.319  c3.387-3.164,9.059-0.587,8.992,4.172c-0.098,6.714-0.027,13.116-0.227,14.022c-0.355,1.599-0.391,1.688-0.246,1.978  c0.297,0.589,2.859,0.843,2.859,0.675v2.829c-1.957,0.151-2.77-0.028-4.336-1.129c-0.977,0.929-3.953,1.854-6.32,0.765  C840.391,798.335,839.027,796.188,839.395,791.323L839.395,791.323z M846.645,796.335c-1.063-1.512-2.852-3.57-4.535-4.297  c-0.105,1.731,0.047,3.188,0.668,3.969C843.766,797.253,845.363,797.538,846.645,796.335L846.645,796.335z M847.527,779.749  c-0.789-2.195-2.816-2.937-4.297-1.57c-0.926,0.859-1.074,1.759-1.094,6.642c-0.012,3.011-0.012,4.276-0.012,4.276  c2.883,0.914,5.578,4.216,5.555,4.172l0.07-9.105C847.805,782.688,847.73,781.206,847.527,779.749L847.527,779.749z   M847.527,779.749"
   id="path93" />
<path
   fill="#D40000"
   d="M917.051,796.886h2.582l-3.793-9.305l-2.898,3.93l0.02,5.375h2.035v2.773h-7.172v-2.773h2.363v-20.012  l-2.363,0.008v-2.422h7.277v2.504h-2.008l-0.043,9.754l6.352-9.836h-2.242v-2.422h7.742v2.422h-2.043l-5.23,8.039l5.121,11.969  h2.273l0.012,2.77h-7.961L917.051,796.886z M917.051,796.886"
   id="path95" />
<g
   id="g97">
	<defs
   id="defs99">
		<rect
   id="SVGID_1_"
   x="123"
   y="53"
   width="872.88"
   height="794" />
	</defs>
	<clipPath
   id="SVGID_2_">
		<use
   xlink:href="#SVGID_1_"
   overflow="visible"
   id="use103" />
	</clipPath>
	<path
   clip-path="url(#SVGID_2_)"
   fill="#D40000"
   d="M979.961,799.659v-2.152h2.094l4.461-23.047h2.539l4.914,23.047h1.691v2.152   h-5.762v-2.152h1.555l-0.621-3.531h-5.813l-0.449,3.531h1.555v2.152H979.961z M990.336,791.46l-2.527-12.336l-2.367,12.336H990.336   z M990.336,791.46"
   id="path105" />
	<path
   clip-path="url(#SVGID_2_)"
   fill="#D40000"
   d="M138.551,821.171l-0.125,1.551c-0.395,4.806-1.446,6.427-7.406,11.435   c-2.895,2.429-3.844,3.632-3.977,5.022c-0.379,3.277,2.578,4.302,4.504,4.32c2.496,0.024,5.32-1.472,3.973-4.937l2.8-0.821   c0.563,3.23-0.015,6.266-2.636,7.614c-3.5,1.754-7.989,1.065-10.254-1.699c-1.524-1.86-1.867-4.422-1.055-6.431   c2.387-5.137,10.484-7.395,11.152-13.327h-8.949v3.304h-2.637v-6.086L138.551,821.171z M138.551,821.171"
   id="path107" />
</g>
<path
   fill="#D40000"
   d="M210.957,826.64l-1.977,1.431c-1.718-2.743-3.632-4.552-6.566-4.239c-4.402,0.297-6.226,4.825-5.305,8.242  c0.891,3.059,4.536,4.555,7.434,2.918c0.68-0.382,1.344-0.699,1.473-0.699c0.3,0,0.992,1.344,0.898,1.754  c-1.945,2.785-6.668,7.676-6.668,7.676h7.379v-3.273h2.832v5.868h-14.422v-1.993c0,0,3.86-3.93,5.141-6.085  c-3.149-0.118-5.684-2.071-6.59-5.168c-0.531-1.629-0.293-5.353,0.402-6.957c1.157-2.676,4.332-4.849,7.231-4.974  C207.086,820.816,209.668,824.167,210.957,826.64L210.957,826.64z M210.957,826.64"
   id="path109" />
<path
   fill="#D40000"
   d="M273.828,821.116v2.23h-2.051v3.672h10.239v2.591l-11.078,16.711l-1.809-0.013v-16.702H266v-2.591h3.129  l0.062-3.672h-1.718v-2.227H273.828z M271.777,840.202l7.036-10.593h-7.036V840.202z M271.777,840.202"
   id="path111" />
<path
   fill="#D40000"
   d="M353.477,827.644l-2.516,0.023c-0.481-1.519-1.543-3.07-2.984-3.496c-4.071-0.957-6.696,1.317-7.559,3.942  c-1.047,3.183,0.023,7.656,2.828,9.246c2.324,1.315,5.777,0.207,7.363-2.61l1.766,1.078l-0.949,10.489h-11.512v-2.478h9.328  l0.149-4.371c-2.004,1.41-5.094,1.396-7.102,0.406c-3.801-1.812-5.566-5.933-4.828-10.793c1.023-4.832,3.281-7.57,8.379-7.965  C351.5,821.07,353.5,824.96,353.477,827.644L353.477,827.644z M353.477,827.644"
   id="path113" />
<path
   fill="#D40000"
   d="M424.305,828.866c0.316,2.125,0.308,7.609,0.05,9.23c-0.796,4.97-2.73,7.238-5.968,7.984  c-3.145,0.723-7.563-0.082-8.532-4.238l2.629-0.047c1.422,2.81,5.02,2.055,7.047,0.836c1.617-0.976,2.348-5.039,2.035-5.289  c0,0-3.058,2.224-5.468,2.06c-5.153-0.524-7.278-4.911-7.098-9.056c0.164-4.983,1.773-8.965,7.234-9.23  C421.426,821.313,423.805,824.093,424.305,828.866L424.305,828.866z M411.5,830.188c-0.027,3.456,1.57,6.043,4.598,6.327  c3.023,0.285,6.074-2.612,5.863-6.137c-0.211-3.535-1.606-6.515-5.273-6.5C412.742,823.898,411.52,827.726,411.5,830.188  L411.5,830.188z M411.5,830.188"
   id="path115" />
<path
   fill="#D40000"
   d="M492.09,821.12c-1.684,8.762-3.481,15.336-8.199,22.477h9.586v-3.073h2.55v5.793H482l-1.73-2.72  c5.011-5.371,9.597-22.73,8.785-22.477H492.09z M492.09,821.12"
   id="path117" />
<path
   fill="#D40000"
   d="M567.867,828.495c-0.125,3.383-1.371,4.653-3.82,6.426c1.953,1.387,2.777,3.43,2.613,5.168  c-0.402,4.211-3.719,6.317-7.332,6.228c-3.613-0.095-6.73-2.91-6.973-5.97c-0.21-2.664,0.598-3.944,2.52-5.348  c-2.281-1.886-3.742-3.129-3.687-6.461c0.054-3.332,2.941-7.297,7.972-7.418S567.992,825.116,567.867,828.495L567.867,828.495z   M553.82,828.488c-0.215,3.062,2.543,5.128,5.653,5.16c3.031,0.03,5.742-2.513,5.746-5.263c0-2.953-3.527-4.555-5.809-4.565  C556.641,823.813,554.004,825.847,553.82,828.488L553.82,828.488z M554.816,839.441c-0.062,2.582,2.364,4.429,4.86,4.354  c2.223-0.065,4.578-1.733,4.578-3.89c0-2.696-2.676-4.043-4.961-4.094C557.223,835.765,554.859,837.491,554.816,839.441  L554.816,839.441z M554.816,839.441"
   id="path119" />
<path
   fill="#D40000"
   d="M638.078,825.972l-2.348,0.73c-0.887-2.32-2.676-3.007-4.57-2.859c-3.398,0.263-4.527,3.992-4.781,7.289  c1.324-1.375,3.316-2.074,5.012-2.004c5.414,0.285,6.801,4.539,6.852,8.996c0.152,3.762-1.434,6.485-4.148,7.731  c-1.438,0.633-4.727,0.633-6.176-0.114c-3.32-1.722-4.551-4.695-4.328-11.785c0-5.836,1.262-12.636,7.633-12.781  C634.906,820.675,637.703,823.488,638.078,825.972L638.078,825.972z M628.855,832.366c-1.105,0.688-1.727,1.332-2.223,2.301  c-0.406,0.793-0.543,1.203-0.43,2.848c0.301,4.23,2.559,6.629,5.84,6.152c1.828-0.265,2.824-1.269,3.398-3.14  c1.059-3.45-0.285-7.493-2.801-8.422C631.508,831.688,629.762,831.808,628.855,832.366L628.855,832.366z M628.855,832.366"
   id="path121" />
<path
   fill="#D40000"
   d="M710.082,821.113v25.207h-2.488v-25.207H710.082z M710.082,821.113"
   id="path123" />
<path
   fill="#D40000"
   d="M700.219,846.32c2.395,0,4.32-2.149,4.32-4.817v-15.57c0-2.668-1.926-4.819-4.32-4.819h-1.398  c-2.395,0-4.324,2.151-4.324,4.819v15.57c0,2.668,1.93,4.817,4.324,4.817H700.219z M699.496,843.938  c-1.414,0-2.551-1.071-2.551-2.403v-15.777c0-1.332,1.137-2.406,2.551-2.406s2.555,1.074,2.555,2.406v15.777  C702.051,842.866,700.91,843.938,699.496,843.938L699.496,843.938z M699.496,843.938"
   id="path125" />
<g
   id="g127">
	<defs
   id="defs129">
		<rect
   id="SVGID_3_"
   x="123"
   y="53"
   width="872.88"
   height="794" />
	</defs>
	<clipPath
   id="SVGID_4_">
		<use
   xlink:href="#SVGID_3_"
   overflow="visible"
   id="use133" />
	</clipPath>
	<path
   clip-path="url(#SVGID_4_)"
   fill="#D40000"
   d="M773.75,846.316v-2.638h-2.605c0,0-0.063-2.539-0.086-7.938   c-0.023-5.234-0.129-7.835,0.207-9.324c0.918-3.441,5.988-3.457,7-0.984c0.586,1.438,0.426,2.556,0.457,4h2.805   c0,0-0.016-0.727-0.02-1.616c-0.016-3.871-1.32-5.716-4.375-6.446c-3.137-0.832-6.801,0.434-8.105,3.071   c-0.781,1.5-0.691,1.597-0.707,10.668c-0.012,6.054-0.109,8.569-0.109,8.569h-2.398v2.638H773.75z M773.75,846.316"
   id="path135" />
	<path
   clip-path="url(#SVGID_4_)"
   fill="#D40000"
   d="M850.703,829.456h2.145v2.871h-2.145c0,0-0.016,1.543-0.078,4.273   c-0.129,5.816-0.281,6.723-1.992,8.32c-3.387,3.168-9.063,0.586-8.992-4.172c0.098-6.711,0.023-13.113,0.223-14.023   c0.355-1.594,0.391-1.688,0.246-1.977c-0.293-0.59-2.859-0.84-2.859-0.676v-2.828c1.957-0.152,2.77,0.028,4.336,1.129   c0.98-0.929,3.957-1.855,6.32-0.761C849.707,822.441,851.074,824.593,850.703,829.456L850.703,829.456z M843.453,824.441   c1.063,1.511,2.852,3.569,4.539,4.297c0.102-1.731-0.047-3.185-0.672-3.97C846.332,823.527,844.738,823.238,843.453,824.441   L843.453,824.441z M842.57,841.027c0.789,2.198,2.816,2.937,4.297,1.569c0.926-0.858,1.074-1.754,1.094-6.637   c0.012-3.012,0.016-4.281,0.016-4.281c-2.887-0.914-5.582-4.215-5.555-4.172l-0.074,9.109   C842.297,838.089,842.367,839.57,842.57,841.027L842.57,841.027z M842.57,841.027"
   id="path137" />
</g>
<path
   fill="#D40000"
   d="M915.809,823.894h-2.582l3.793,9.302l2.898-3.931l-0.016-5.371h-2.039v-2.773h7.172v2.773h-2.363v20.013  l2.363-0.008v2.418h-7.277v-2.5h2.008l0.043-9.759l-6.352,9.841h2.242v2.418h-7.742v-2.418H910l5.23-8.043l-5.121-11.966h-2.273  l-0.012-2.773h7.961L915.809,823.894z M915.809,823.894"
   id="path139" />
<path
   fill="#D40000"
   d="M995.66,821.116v2.157h-2.098l-4.457,23.043h-2.539l-4.914-23.043h-1.691v-2.157h5.762v2.157h-1.555  l0.617,3.53h5.816l0.449-3.53h-1.559v-2.157H995.66z M985.285,829.316l2.523,12.34l2.367-12.34H985.285z M985.285,829.316"
   id="path141" />
<path
   fill="#D40000"
   d="M513.641,55.605c5.714-0.379,8.695,4.504,9.273,8.351c0.348,0.61,0.539,0.438,0.672-0.035  c0.277-4.937,4.699-8.976,8.793-8.426c6.664,0.09,10.711,7.504,9.574,13.778c-1.39,7.664-5.519,12.281-8.648,17.035  c-3.535,4.922-8.297,12.031-9.832,15.453c0,0-4.836-7.363-11.133-16.022c-4.211-5.793-7.578-12.067-7.891-17.469  C504.09,62.097,506.625,56.562,513.641,55.605L513.641,55.605z M513.641,55.605"
   id="path143" />
<path
   fill="#D40000"
   d="M516.34,137.515c-1.266,2.777-1.402,7.523,2.379,8.164c2.847,0.367,4.008-0.957,4.238-2.992  c0.113-0.594,0.449-0.633,0.559,0.047c0.16,2.086,2.226,3.304,3.843,3c4.422-0.758,4.164-5.625,2.719-8.926  c-2.183-4.383-4.48-7.149-6.598-11.563C521.051,129.839,518.277,133.57,516.34,137.515L516.34,137.515z M516.34,137.515"
   id="path145" />
<path
   d="M439.477,101.46c2.304-4.621,3.98-9.359,4.277-14.429c0.273-1.868-0.859-1.899-1.031-0.583  c-3.258,12.473-20.61,9.094-20.012-2.636c0.484-9.52,9.937-11.567,14.867-8.453c1.945,1.144,1.836,0.46,0.774-0.731  c-7.325-8.168-2.887-18.687,7.007-18.883c10.704,0.637,13.481,11.899,6.914,18.52c-0.816,0.797-2.625,3.355,0.102,1.566  c6.629-4.711,15.828,0.356,15.641,7.617c-0.348,13.391-16.672,14.387-20.164,3.204c-0.336-1.239-1.301-1.864-1.036,0.242  c0.485,3.816,1.485,9.562,4.352,14.566H439.477z M439.477,101.46"
   id="path147" />
<path
   d="M442.121,145.054c0.953-1.957,1.883-3.776,2.387-5.922c0.336-2.019-0.348-1.269-0.738,0.055  c-0.579,1.84-2.18,2.676-3.665,2.695c-2.699,0.039-4.042-2.082-3.957-4.363c-0.296-2.399,2.137-4.094,3.969-3.965  c1.375,0.098,2.578,0.844,3.305,1.422c0.476,0.25,0.988,0.363,0.277-0.289c-1.344-1.465-2.461-2.371-2.438-4.567  c0.023-2.062,1.785-4.214,4.125-4.148c2.922,0.086,4.25,2.312,4.242,4.387c-0.008,1.507-0.762,2.898-1.93,3.761  c-0.754,0.614-0.543,1.071,0.317,0.493c0.828-0.715,1.816-1.028,2.836-1.051c2.793-0.043,3.886,2.371,3.726,4.613  c-0.152,2.102-1.937,4.262-4.297,4.017c-2.105-0.239-3.211-2.008-3.843-3.821c-0.211-0.554-0.54-0.707-0.532,0.121  c0.485,4.047,1.992,6.567,2.004,6.563H442.121z M442.121,145.054"
   id="path149" />
<path
   d="M600.859,140.757c0.012-0.695-0.715-0.371-0.813-0.152c-0.93,1.59-2.293,1.957-3.637,1.386  c-1.336-0.566-2.086-1.824-1.965-3.617c0.25-2.75,2.43-5.761,3.484-7.461c1-1.547,2.102-3.379,3.262-5.722  c1.355,2.687,2.047,3.453,3.523,5.91c1.301,2.164,3.113,4.285,3.254,6.898c0,1.989-0.836,3.867-2.719,4.207  c-1.066,0.196-2.063-0.351-2.805-1.629c-0.223-0.324-0.68-0.156-0.672,0.289c0.133,1.676,0.766,3.188,2.266,4.969h-5.512  C599.656,144.577,600.809,142.874,600.859,140.757L600.859,140.757z M600.859,140.757"
   id="path151" />
<path
   d="M599.496,87.765c0.012-1.621-1.27-1.652-1.254-0.469c-0.105,5.942-5.133,8.867-8.785,8.176  c-5.629-1.07-7.426-6.66-7.371-9.949c0.164-10.157,10.391-17.649,19.617-30.668c6.758,11.754,17.918,20.984,18.578,30.066  c0.879,12.082-14.406,16.586-16.59,2.508c-0.141-0.996-1.313-1.44-1.223-0.051c0.332,3.856-0.137,5.465,4.215,14.973h-11.379  C597.824,97.909,599.324,92.452,599.496,87.765L599.496,87.765z M599.496,87.765"
   id="path153" />
<path
   fill="#D40000"
   d="M661.34,78.792c7.938-7.746,13.152-16.191,18.137-24.312c4.371,8.937,10.645,16.754,17.426,24.312  c-7.258,7.496-12.883,15.508-17.406,23.934C674.484,94.089,669.203,86.269,661.34,78.792L661.34,78.792z M661.34,78.792"
   id="path155" />
<path
   fill="#D40000"
   d="M671.84,135.589c3.25-3.172,5.387-6.633,7.426-9.957c1.793,3.66,4.363,6.863,7.141,9.957  c-2.973,3.07-5.277,6.356-7.129,9.805C677.223,141.859,675.059,138.652,671.84,135.589L671.84,135.589z M671.84,135.589"
   id="path157" />
<path
   d="M439.477,202.296c2.304,4.621,3.98,9.36,4.277,14.43c0.273,1.867-0.859,1.898-1.031,0.582  c-3.258-12.473-20.61-9.094-20.012,2.638c0.484,9.519,9.937,11.565,14.867,8.453c1.945-1.145,1.836-0.461,0.774,0.73  c-7.325,8.168-2.887,18.688,7.007,18.883c10.704-0.637,13.481-11.897,6.914-18.52c-0.816-0.796-2.625-3.355,0.102-1.566  c6.629,4.711,15.828-0.355,15.641-7.617c-0.348-13.391-16.672-14.387-20.164-3.203c-0.336,1.238-1.301,1.863-1.036-0.242  c0.485-3.817,1.485-9.563,4.352-14.567H439.477z M439.477,202.296"
   id="path159" />
<path
   d="M442.121,158.702c0.953,1.957,1.883,3.778,2.387,5.922c0.336,2.02-0.348,1.27-0.738-0.054  c-0.579-1.84-2.18-2.676-3.665-2.696c-2.699-0.039-4.042,2.082-3.957,4.364c-0.296,2.397,2.137,4.093,3.969,3.964  c1.375-0.097,2.578-0.843,3.305-1.421c0.476-0.25,0.988-0.364,0.277,0.289c-1.344,1.464-2.461,2.372-2.438,4.566  c0.023,2.063,1.785,4.215,4.125,4.148c2.922-0.086,4.25-2.313,4.242-4.386c-0.008-1.508-0.762-2.899-1.93-3.762  c-0.754-0.613-0.543-1.07,0.317-0.492c0.828,0.715,1.816,1.027,2.836,1.051c2.793,0.043,3.886-2.372,3.726-4.614  c-0.152-2.101-1.937-4.261-4.297-4.015c-2.105,0.238-3.211,2.007-3.843,3.82c-0.211,0.555-0.54,0.707-0.532-0.125  c0.485-4.043,1.992-6.563,2.004-6.559H442.121z M442.121,158.702"
   id="path161" />
<path
   fill="#D40000"
   d="M513.641,248.152c5.714,0.379,8.695-4.504,9.273-8.353c0.348-0.609,0.539-0.437,0.672,0.035  c0.277,4.938,4.699,8.977,8.793,8.426c6.664-0.09,10.711-7.504,9.574-13.777c-1.39-7.664-5.519-12.282-8.648-17.036  c-3.535-4.921-8.297-12.031-9.832-15.453c0,0-4.836,7.364-11.133,16.024c-4.211,5.793-7.578,12.066-7.891,17.469  C504.09,241.659,506.625,247.195,513.641,248.152L513.641,248.152z M513.641,248.152"
   id="path163" />
<path
   fill="#D40000"
   d="M516.34,166.241c-1.266-2.777-1.402-7.523,2.379-8.164c2.847-0.367,4.008,0.957,4.238,2.993  c0.113,0.593,0.449,0.632,0.559-0.047c0.16-2.086,2.226-3.305,3.843-3c4.422,0.758,4.164,5.625,2.719,8.925  c-2.183,4.383-4.48,7.149-6.598,11.563C521.051,173.917,518.277,170.187,516.34,166.241L516.34,166.241z M516.34,166.241"
   id="path165" />
<path
   d="M600.859,162.999c0.012,0.696-0.715,0.371-0.813,0.153c-0.93-1.59-2.293-1.957-3.637-1.387  c-1.336,0.566-2.086,1.824-1.965,3.617c0.25,2.75,2.43,5.762,3.484,7.461c1,1.547,2.102,3.379,3.262,5.724  c1.355-2.688,2.047-3.453,3.523-5.91c1.301-2.165,3.113-4.286,3.254-6.899c0-1.988-0.836-3.867-2.719-4.207  c-1.066-0.195-2.063,0.353-2.805,1.629c-0.223,0.324-0.68,0.156-0.672-0.289c0.133-1.676,0.766-3.188,2.266-4.969h-5.512  C599.656,159.179,600.809,160.882,600.859,162.999L600.859,162.999z M600.859,162.999"
   id="path167" />
<path
   d="M599.496,215.991c0.012,1.622-1.27,1.653-1.254,0.469c-0.105-5.941-5.133-8.867-8.785-8.176  c-5.629,1.071-7.426,6.661-7.371,9.95c0.164,10.156,10.391,17.647,19.617,30.668c6.758-11.754,17.918-20.985,18.578-30.067  c0.879-12.082-14.406-16.586-16.59-2.508c-0.141,0.996-1.313,1.442-1.223,0.051c0.332-3.855-0.137-5.465,4.215-14.972h-11.379  C597.824,205.847,599.324,211.304,599.496,215.991L599.496,215.991z M599.496,215.991"
   id="path169" />
<path
   fill="#D40000"
   d="M661.34,224.964c7.938,7.746,13.152,16.192,18.137,24.313c4.371-8.938,10.645-16.754,17.426-24.313  c-7.258-7.496-12.883-15.508-17.406-23.933C674.484,209.667,669.203,217.488,661.34,224.964L661.34,224.964z M661.34,224.964"
   id="path171" />
<path
   fill="#D40000"
   d="M671.84,168.167c3.25,3.172,5.387,6.633,7.426,9.957c1.793-3.66,4.363-6.863,7.141-9.957  c-2.973-3.07-5.277-6.355-7.129-9.804C677.223,161.898,675.059,165.105,671.84,168.167L671.84,168.167z M671.84,168.167"
   id="path173" />
</svg>